<svg xmlns="http://www.w3.org/2000/svg" xmlns:xlink="http://www.w3.org/1999/xlink" width="200" height="25.531" viewBox="0 0 200 25.531">
  <defs>
    <clipPath id="clip-path">
      <rect id="Retângulo_446" data-name="Retângulo 446" width="200" height="25.531" fill="none"/>
    </clipPath>
  </defs>
  <g id="logo" clip-path="url(#clip-path)">
    <path id="Caminho_24" data-name="Caminho 24" d="M19.236,11.7a5.822,5.822,0,0,0-.768-2.661L14.253,1.768A5.822,5.822,0,0,1,13.592,0l-.179.3a5.822,5.822,0,0,0,0,5.822l3.358,5.822a5.822,5.822,0,0,1,0,5.822l-.179.3a5.8,5.8,0,0,0-.661-1.768l-3.072-5.322L10.895,7.573A5.822,5.822,0,0,1,10.234,5.8l-.179.3a5.822,5.822,0,0,0-.018,5.8h0l3.376,5.858a5.822,5.822,0,0,1,0,5.822l-.179.3a5.8,5.8,0,0,0-.661-1.768l-4.2-7.269A5.822,5.822,0,0,1,7.609,11.7C3.108,12.877,0,15.36,0,18.253c0,4.019,6,7.287,13.413,7.287s13.413-3.251,13.413-7.269c0-2.893-3.108-5.376-7.609-6.555m62.8,6.626c0,4.233,2.215,6.662,5.537,6.662a3.881,3.881,0,0,0,3.554-1.822l.143,1.518H93.8V12.074a14.232,14.232,0,0,0-4.769-.714c-4.662,0-7.037,2.518-7.037,6.966m9.019,3.483a4.34,4.34,0,0,1-2.7.911c-2.465,0-3.5-1.822-3.5-4.394s1.34-4.59,4.215-4.59a11.449,11.449,0,0,1,1.983.143ZM65.154,11.359a23.633,23.633,0,0,0-5.037.714V24.683h2.768V13.931a13.9,13.9,0,0,1,2.2-.2c2.768,0,3.429.964,3.429,2.947v7.984h2.768V16.2c0-3.054-1.482-4.84-6.126-4.84M45.294,18.325c0,4.233,2.215,6.662,5.537,6.662a3.881,3.881,0,0,0,3.554-1.822l.143,1.518h2.554V12.074a14.232,14.232,0,0,0-4.769-.714c-4.662,0-7.037,2.518-7.037,6.966M54.3,21.807a4.34,4.34,0,0,1-2.7.911c-2.465,0-3.5-1.822-3.5-4.394s1.34-4.59,4.215-4.59a11.449,11.449,0,0,1,1.983.143Zm26.648-7.644a21.331,21.331,0,0,0,.268-2.375H76.817V7.037a9.591,9.591,0,0,0-2.768.411V20.682c0,3.072,1.715,4.3,4.411,4.3a6.287,6.287,0,0,0,2.34-.411c.143-.732.25-1.59.321-2.34a6.287,6.287,0,0,1-2.161.375c-1.34,0-2.143-.625-2.143-2.268v-6.18Zm-41.936.786-1.357-.572c-1.768-.75-2.75-1.518-2.75-2.822s1-2.2,3.2-2.2a12.788,12.788,0,0,1,4.126.732,9.7,9.7,0,0,0,.5-2.518,13.824,13.824,0,0,0-4.608-.732c-4.09,0-6.073,1.84-6.073,4.715s1.607,4,3.983,5.037l1.3.554c2.375,1.036,3.322,1.715,3.322,3.179s-1.3,2.25-3.661,2.25a11.77,11.77,0,0,1-4.608-.982,8.466,8.466,0,0,0-.482,2.554,12.054,12.054,0,0,0,5.162.964c4.286,0,6.483-1.982,6.483-4.894,0-2.447-1.34-3.876-4.537-5.251M156.653,7.341,150.58,24.683h1.857l1.465-4.251h7.787l1.465,4.251h1.857L158.868,7.108a10.18,10.18,0,0,0-2.215.232m-2.2,11.413,3.358-9.805,3.322,9.805Zm27.63,1.982V13.342h4.376a9.556,9.556,0,0,0,.179-1.59h-4.554V7.091a6.126,6.126,0,0,0-1.768.286V20.968c0,2.822,1.482,4.036,3.911,4.036a6.43,6.43,0,0,0,2.268-.411,14.86,14.86,0,0,0,.232-1.518,6.608,6.608,0,0,1-2.2.411c-1.554,0-2.447-.8-2.447-2.715m-6.8,1.286a5.09,5.09,0,0,1-3.572,1.429c-2.268,0-3.322-1.107-3.322-3.733V11.681h-1.768v8.412c0,3.358,1.607,4.894,4.536,4.894a5.613,5.613,0,0,0,4.179-1.429l.054,1.125h1.661v-13h-1.768ZM193.91,11.395c-3.911,0-6.233,2.625-6.233,6.876,0,3.876,2.036,6.733,6.073,6.733S200,22.379,200,18.075c0-3.822-2.018-6.68-6.09-6.68m-.054,12.02c-2.876,0-4.394-1.893-4.394-5.269,0-3.108,1.429-5.162,4.394-5.162s4.358,1.911,4.358,5.215-1.429,5.215-4.358,5.215M119.343,11.573a10.859,10.859,0,0,0-2.072-.2c-4.662,0-7.037,2.518-7.037,6.966S112.449,25,115.771,25a3.836,3.836,0,0,0,3.608-1.911l.143,1.607h2.554V7.037a8.4,8.4,0,0,0-2.751.375Zm0,10.18a4.447,4.447,0,0,1-2.768.964c-2.465,0-3.5-1.822-3.5-4.394,0-2.876,1.3-4.59,4.054-4.59a11.073,11.073,0,0,1,2.215.25Zm-17.45-10.395a23.633,23.633,0,0,0-5.037.714V24.683h2.768V13.931a13.9,13.9,0,0,1,2.2-.2c2.768,0,3.429.964,3.429,2.947v7.984h2.768V16.2c0-3.054-1.482-4.84-6.126-4.84m36.667.714V24.683h2.768V13.9a13.913,13.913,0,0,1,2.036-.143,17.879,17.879,0,0,1,2.09.107,10.306,10.306,0,0,0,.25-2.375,22.61,22.61,0,0,0-2.411-.107,16.573,16.573,0,0,0-4.733.714m-8.073-.714c-4.411,0-6.144,2.983-6.144,6.733,0,4.3,2.25,6.876,6.876,6.876a9.728,9.728,0,0,0,4.09-.8c.179-.839.321-1.786.429-2.518a10.805,10.805,0,0,1-4.429.964c-2.465,0-3.786-1.089-4.126-3.322h8.841a14.738,14.738,0,0,0,.143-2.143c0-3.179-1.715-5.769-5.68-5.769m-3.358,5.572c.232-2.143,1.268-3.268,3.233-3.268s3.018,1.215,3.018,3.268Z" transform="translate(0 0)" fill="#EC0000"/>
  </g>
</svg>
